<?xml version="1.0" standalone="no"?>
<!DOCTYPE svg PUBLIC "-//W3C//DTD SVG 20010904//EN"
 "http://www.w3.org/TR/2001/REC-SVG-20010904/DTD/svg10.dtd">
<svg version="1.0" xmlns="http://www.w3.org/2000/svg"
 width="300.000000pt" height="300.000000pt" viewBox="0 0 300.000000 300.000000"
 preserveAspectRatio="xMidYMid meet">
<g transform="translate(0.000000,300.000000) scale(0.050000,-0.050000)"
fill="#5a3f7a" stroke="none">
<path d="M694 5619 c-192 -32 -323 -146 -430 -374 l-54 -115 0 -2160 0 -2160
62 -130 c145 -306 302 -391 718 -389 409 2 615 95 736 331 l57 111 6 828 c9
1131 7 1079 35 1079 14 0 46 -25 72 -55 26 -30 76 -86 112 -125 35 -38 177
-205 316 -370 562 -669 657 -741 827 -628 99 66 701 825 938 1183 138 208 151
161 151 -544 0 -530 4 -514 -102 -460 -379 193 -639 -270 -331 -591 l91 -95
142 10 c167 12 180 -1 180 -169 1 -360 223 -506 771 -506 l361 0 134 68 c182
92 274 197 331 372 l44 140 -5 2160 -6 2160 -46 86 c-71 132 -176 237 -301
298 l-113 56 -450 0 c-699 0 -653 34 -1502 -1100 -355 -475 -369 -490 -428
-490 -64 0 -279 245 -828 945 -357 454 -475 552 -756 625 -124 33 -561 38
-732 9z m664 -200 c222 -48 292 -117 790 -781 252 -334 495 -653 541 -708 46
-55 110 -138 142 -185 51 -73 69 -84 132 -85 118 0 125 7 434 418 162 215 336
446 386 512 50 66 184 245 298 397 317 427 342 439 911 429 427 -7 464 -18
570 -173 l48 -70 5 -2162 6 -2162 -59 -92 c-99 -156 -244 -237 -427 -237 -143
0 -87 138 188 466 121 145 96 -5 -29 -176 -105 -144 -120 -180 -85 -209 21
-17 51 6 137 104 l111 126 12 1129 c7 622 14 1157 15 1190 0 33 -5 455 -12
938 -11 765 -9 884 18 924 76 116 -30 272 -161 239 -135 -33 -124 -291 12
-291 37 0 38 -43 38 -1898 l0 -1898 -49 -32 c-57 -38 -369 -405 -446 -526 -59
-92 -164 -125 -164 -51 1 71 25 122 62 131 71 19 43 69 -43 78 -101 9 -99 11
-99 -117 0 -160 -77 -120 -230 119 -49 76 -49 76 260 80 l274 4 63 80 c35 43
107 128 160 187 147 163 193 297 85 248 -47 -22 -352 -355 -352 -385 0 -8
-130 -14 -290 -13 l-290 2 0 53 c0 73 30 81 298 77 l230 -4 151 160 c83 88
166 178 184 200 18 22 44 44 59 49 30 10 49 3136 19 3156 -8 5 -62 67 -120
136 l-104 126 -203 -14 c-330 -22 -353 -103 -26 -91 l186 7 94 -110 94 -111
-3 -1487 -3 -1488 -183 -195 c-152 -160 -191 -192 -227 -181 -42 12 -41 15 30
86 41 41 120 131 177 200 l103 125 0 1384 1 1384 -117 117 c-107 107 -121 116
-173 100 -124 -39 -260 -12 -288 56 -48 114 -206 153 -310 76 -110 -81 -135
-187 -69 -295 l39 -64 -100 -121 c-55 -66 -94 -120 -86 -120 32 0 207 132 218
165 8 25 33 35 85 35 83 0 190 57 223 119 44 81 291 58 396 -38 l85 -76 0
-1332 c0 -885 -7 -1335 -20 -1343 -39 -24 -179 -227 -234 -338 l-54 -112 -215
0 -214 0 -43 -60 c-179 -252 -573 -36 -432 236 87 169 363 175 388 8 11 -72
45 -82 250 -70 l194 12 44 71 c24 38 88 124 143 189 l99 120 -4 1122 c-5 1233
2 1169 -131 1251 -49 30 -71 59 -71 91 0 50 -47 110 -87 110 -90 0 -153 -152
-89 -216 30 -30 129 -31 147 -2 8 12 40 -25 76 -85 l62 -107 7 -1046 8 -1046
-78 -94 c-43 -52 -98 -123 -123 -159 -70 -100 -175 -80 -119 23 14 27 69 104
122 172 l96 124 -1 833 c-2 955 -8 1021 -85 1023 -7 0 -10 -406 -6 -902 l7
-902 -54 -77 c-29 -43 -60 -78 -68 -78 -8 -1 -15 382 -15 849 0 940 5 906
-124 792 -37 -32 -163 -191 -282 -355 -119 -163 -310 -418 -425 -567 -115
-148 -258 -337 -318 -420 -262 -364 -374 -388 -561 -119 -42 60 -127 172 -189
249 -223 277 -246 321 -253 473 -7 183 66 139 261 -158 31 -47 70 -85 86 -85
17 0 61 -19 99 -42 155 -96 77 15 -262 374 l-158 167 12 98 c14 118 -22 183
-101 183 -117 0 -176 -157 -77 -203 59 -27 71 -68 72 -242 0 -143 -13 -163
-58 -90 -140 224 -650 833 -677 807 -8 -8 -17 -624 -20 -1368 -2 -745 -10
-1383 -16 -1419 -10 -59 -135 -186 -159 -162 -21 21 -13 1706 9 1713 79 27 88
207 11 237 -46 17 -45 1285 1 1355 38 59 33 252 -7 252 -127 0 -208 -150 -133
-249 24 -32 29 -146 29 -674 l0 -635 -49 -72 c-53 -78 -43 -164 26 -215 30
-23 32 -106 28 -891 l-6 -866 -74 6 -75 6 -1 1930 0 1930 74 68 74 68 281 2
c155 1 282 -5 282 -14 0 -73 153 -40 172 37 25 99 -110 173 -174 96 -23 -28
-68 -31 -338 -23 l-310 9 -75 -96 -75 -96 0 -1961 0 -1960 -60 0 -60 0 0 2031
c0 2257 -12 2053 133 2205 l63 66 247 -5 c215 -4 253 -10 293 -45 92 -82 216
58 133 150 -42 46 -114 50 -149 8 -20 -24 -80 -30 -297 -30 l-273 0 -116 -129
-115 -130 1 -2062 1 -2062 -46 14 c-73 22 -73 22 -76 474 -2 408 1 438 38 486
62 79 6 147 -107 131 -96 -14 -115 -78 -45 -149 44 -44 45 -49 35 -464 l-10
-419 -54 70 c-98 128 -95 65 -99 2357 -3 2427 -15 2219 136 2334 116 88 524
124 785 68z m3031 -750 c39 -40 39 -68 0 -125 -74 -104 -210 3 -148 117 25 47
104 51 148 8z m-2598 -1713 c9 8 9 3 1 -11 -8 -14 -5 -25 7 -25 11 0 21 -32
21 -72 0 -57 -7 -70 -31 -60 -17 6 -26 4 -20 -6 15 -24 -36 -63 -60 -46 -46
33 -26 242 22 223 25 -9 52 -10 60 -3z"/>
<path d="M1069 5231 c-87 -87 -46 -230 74 -258 79 -19 177 68 177 155 0 135
-155 199 -251 103z m147 -77 c29 -34 -3 -83 -44 -68 -39 15 -43 94 -4 94 15 0
37 -12 48 -26z"/>
<path d="M4826 5260 c-24 -10 -53 -36 -65 -59 -26 -48 -251 -60 -320 -17 -101
63 -194 -90 -104 -171 49 -45 73 -42 119 17 59 75 255 74 326 -2 56 -60 162
-57 209 6 88 116 -31 280 -165 226z"/>
<path d="M590 5197 c-74 -65 -79 -109 -18 -179 51 -57 40 -1751 -11 -1795 -68
-58 -72 -133 -11 -195 l54 -54 -11 -282 c-14 -339 -14 -265 0 -603 10 -243 7
-284 -21 -307 -62 -52 -41 -122 36 -122 128 0 167 42 100 109 -45 45 -43 1221
3 1272 38 42 37 147 -1 179 -50 41 -45 1733 5 1749 95 30 120 204 38 262 -60
42 -83 37 -163 -34z"/>
<path d="M1404 4316 c-40 -40 -30 -171 15 -195 96 -52 201 1 201 102 0 95
-150 159 -216 93z"/>
<path d="M1904 4326 c-290 -58 -216 -564 76 -518 66 10 74 5 124 -74 30 -46
100 -141 155 -210 56 -69 160 -208 231 -310 72 -101 175 -247 230 -324 61 -85
100 -161 100 -195 l0 -54 252 13 c270 13 287 8 288 -89 0 -72 51 -53 133 50
42 52 108 132 146 176 39 45 86 110 105 145 21 39 50 64 74 64 99 0 141 151
58 209 -90 63 -181 0 -164 -113 9 -61 -3 -79 -144 -224 l-154 -157 -120 12
c-66 7 -181 13 -256 13 l-136 0 -41 92 c-22 51 -88 156 -147 235 -58 79 -161
220 -228 313 -67 94 -172 233 -234 310 -126 157 -128 165 -72 235 131 167 -60
444 -276 401z m136 -166 c81 -81 27 -220 -85 -220 -60 0 -140 93 -125 145 31
106 140 145 210 75z"/>
<path d="M4148 4069 c-40 -40 -50 -67 -45 -130 5 -77 -5 -90 -344 -471 -192
-216 -356 -405 -365 -420 -30 -53 -204 -36 -230 21 -44 97 -164 90 -223 -14
-67 -118 75 -235 185 -153 50 36 77 41 174 33 l115 -11 167 191 c431 488 558
636 558 649 0 8 44 9 97 3 88 -11 102 -7 150 45 160 174 -73 424 -239 257z
m182 -139 c0 -68 -60 -85 -96 -28 -31 49 -2 102 51 94 35 -5 45 -19 45 -66z"/>
<path d="M3690 3967 c-19 -19 -29 -50 -22 -75 10 -41 -51 -124 -330 -448 l-72
-84 -248 1 -248 0 -46 75 c-64 101 -228 284 -211 234 7 -22 24 -53 38 -70 14
-16 54 -94 89 -172 l63 -142 303 -12 c292 -11 305 -10 340 31 199 233 280 322
388 426 69 67 126 137 126 156 0 102 -101 150 -170 80z"/>
<path d="M2894 2404 c-72 -75 -73 -178 -2 -262 114 -136 343 -4 299 173 -37
148 -195 195 -297 89z m163 -141 c5 -38 -2 -45 -40 -40 -31 5 -49 23 -54 54
-5 38 2 45 40 40 31 -5 49 -23 54 -54z"/>
<path d="M3869 1398 c-75 -144 99 -290 211 -178 54 54 50 131 -9 191 -72 72
-161 67 -202 -13z"/>
</g>
</svg>
